<?xml version="1.0" standalone="no"?>
<svg xmlns:xlink="http://www.w3.org/1999/xlink" id="wave" style="transform:rotate(0deg); transition: 0.3s" viewBox="0 0 1440 130" version="1.1" xmlns="http://www.w3.org/2000/svg"><defs><linearGradient id="sw-gradient-0" x1="0" x2="0" y1="1" y2="0"><stop stop-color="rgba(19, 62, 135, 1)" offset="0%"/><stop stop-color="rgba(96, 139, 193, 1)" offset="100%"/></linearGradient></defs><path style="transform:translate(0, 0px); opacity:1" fill="url(#sw-gradient-0)" d="M0,39L14.1,36.8C28.2,35,56,30,85,34.7C112.9,39,141,52,169,49.8C197.6,48,226,30,254,32.5C282.4,35,311,56,339,65C367.1,74,395,69,424,62.8C451.8,56,480,48,508,39C536.5,30,565,22,593,34.7C621.2,48,649,82,678,95.3C705.9,108,734,100,762,91C790.6,82,819,74,847,69.3C875.3,65,904,65,932,73.7C960,82,988,100,1016,95.3C1044.7,91,1073,65,1101,49.8C1129.4,35,1158,30,1186,28.2C1214.1,26,1242,26,1271,34.7C1298.8,43,1327,61,1355,58.5C1383.5,56,1412,35,1440,30.3C1468.2,26,1496,39,1525,47.7C1552.9,56,1581,61,1609,71.5C1637.6,82,1666,100,1694,108.3C1722.4,117,1751,117,1779,99.7C1807.1,82,1835,48,1864,43.3C1891.8,39,1920,65,1948,73.7C1976.5,82,2005,74,2019,69.3L2032.9,65L2032.9,130L2018.8,130C2004.7,130,1976,130,1948,130C1920,130,1892,130,1864,130C1835.3,130,1807,130,1779,130C1750.6,130,1722,130,1694,130C1665.9,130,1638,130,1609,130C1581.2,130,1553,130,1525,130C1496.5,130,1468,130,1440,130C1411.8,130,1384,130,1355,130C1327.1,130,1299,130,1271,130C1242.4,130,1214,130,1186,130C1157.6,130,1129,130,1101,130C1072.9,130,1045,130,1016,130C988.2,130,960,130,932,130C903.5,130,875,130,847,130C818.8,130,791,130,762,130C734.1,130,706,130,678,130C649.4,130,621,130,593,130C564.7,130,536,130,508,130C480,130,452,130,424,130C395.3,130,367,130,339,130C310.6,130,282,130,254,130C225.9,130,198,130,169,130C141.2,130,113,130,85,130C56.5,130,28,130,14,130L0,130Z"/><defs><linearGradient id="sw-gradient-1" x1="0" x2="0" y1="1" y2="0"><stop stop-color="rgba(19, 62, 135, 1)" offset="0%"/><stop stop-color="rgba(96, 139, 193, 1)" offset="100%"/></linearGradient></defs><path style="transform:translate(0, 50px); opacity:0.9" fill="url(#sw-gradient-1)" d="M0,13L14.1,30.3C28.2,48,56,82,85,91C112.9,100,141,82,169,75.8C197.6,69,226,74,254,62.8C282.4,52,311,26,339,15.2C367.1,4,395,9,424,23.8C451.8,39,480,65,508,75.8C536.5,87,565,82,593,80.2C621.2,78,649,78,678,80.2C705.9,82,734,87,762,73.7C790.6,61,819,30,847,21.7C875.3,13,904,26,932,28.2C960,30,988,22,1016,26C1044.7,30,1073,48,1101,45.5C1129.4,43,1158,22,1186,21.7C1214.1,22,1242,43,1271,54.2C1298.8,65,1327,65,1355,58.5C1383.5,52,1412,39,1440,43.3C1468.2,48,1496,69,1525,84.5C1552.9,100,1581,108,1609,104C1637.6,100,1666,82,1694,67.2C1722.4,52,1751,39,1779,32.5C1807.1,26,1835,26,1864,32.5C1891.8,39,1920,52,1948,47.7C1976.5,43,2005,22,2019,10.8L2032.9,0L2032.9,130L2018.8,130C2004.7,130,1976,130,1948,130C1920,130,1892,130,1864,130C1835.3,130,1807,130,1779,130C1750.6,130,1722,130,1694,130C1665.9,130,1638,130,1609,130C1581.2,130,1553,130,1525,130C1496.5,130,1468,130,1440,130C1411.8,130,1384,130,1355,130C1327.1,130,1299,130,1271,130C1242.4,130,1214,130,1186,130C1157.6,130,1129,130,1101,130C1072.9,130,1045,130,1016,130C988.2,130,960,130,932,130C903.5,130,875,130,847,130C818.8,130,791,130,762,130C734.1,130,706,130,678,130C649.4,130,621,130,593,130C564.7,130,536,130,508,130C480,130,452,130,424,130C395.3,130,367,130,339,130C310.6,130,282,130,254,130C225.9,130,198,130,169,130C141.2,130,113,130,85,130C56.5,130,28,130,14,130L0,130Z"/></svg>